<svg xmlns="http://www.w3.org/2000/svg" viewBox="0 0 24 24"><path fill="#EAF0FF" d="m20.7 13.7-.9-.5c.1-.4.2-.8.2-1.2s-.1-.8-.2-1.2l.9-.5a1 1 0 0 0 .4-1.4l-1.3-2.2a1 1 0 0 0-1.3-.4l-.9.5a8 8 0 0 0-2.1-1.2V3.6a1 1 0 0 0-1-1h-2.6a1 1 0 0 0-1 1v1.1c-.8.2-1.5.6-2.1 1.1l-.9-.5a1 1 0 0 0-1.3.4L3.3 9a1 1 0 0 0 .4 1.4l.9.5c-.1.4-.2.8-.2 1.2s.1.8.2 1.2l-.9.5a1 1 0 0 0-.4 1.4l1.3 2.2a1 1 0 0 0 1.3.4l.9-.5c.6.5 1.3.9 2.1 1.2v1.1a1 1 0 0 0 1 1h2.6a1 1 0 0 0 1-1v-1.1c.8-.2 1.5-.6 2.1-1.1l.9.5a1 1 0 0 0 1.3-.4l1.3-2.2a1 1 0 0 0-.4-1.4M12 15.3A3.3 3.3 0 1 1 12 8.7a3.3 3.3 0 0 1 0 6.6"/></svg>